<svg xmlns="http://www.w3.org/2000/svg" viewBox="0 0 400 200" width="400" height="200">
  <rect x="0" y="0" width="400" height="200" fill="#0a0a0f"/>
  <g transform="translate(50, 50)">
    <path d="M 50 0 L 60 30 L 40 30 Z" fill="#0a0a0f" stroke="#ff0040" stroke-width="2"/>
    <path d="M 50 0 L 60 30 L 70 60 L 40 60 L 30 30 Z" fill="#0a0a0f" stroke="#ff0040" stroke-width="2"/>
    <path d="M 60 30 L 70 60" stroke="#ff0040" stroke-width="2"/>
    <path d="M 40 30 L 30 60" stroke="#ff0040" stroke-width="2"/>
    <circle cx="50" cy="90" r="20" fill="#0a0a0f" stroke="#ff0040" stroke-width="2"/>
    <path d="M 50 110 L 60 140 L 40 140 Z" fill="#0a0a0f" stroke="#ff0040" stroke-width="2"/>
    <line x1="50" y1="120" x2="50" y2="140" stroke="#ff0040" stroke-width="2"/>
    <line x1="40" y1="130" x2="60" y2="130" stroke="#ff0040" stroke-width="2"/>
    <path d="M 75 120 L 95 120" stroke="#ff0040" stroke-width="2"/>
    <path d="M 80 125 L 90 135" stroke="#ff0040" stroke-width="2"/>
    <path d="M 80 135 L 90 125" stroke="#ff0040" stroke-width="2"/>
  </g>
  <text x="220" y="120" font-family="monospace" font-size="30" fill="#ff0040" font-weight="bold">ANDROID ROOT</text>
  <g transform="translate(100, 150)">
    <rect x="0" y="0" width="50" height="10" fill="#0a0a0f" stroke="#ff0040" stroke-width="1"/>
    <rect x="0" y="15" width="30" height="10" fill="#0a0a0f" stroke="#ff0040" stroke-width="1"/>
    <rect x="0" y="30" width="20" height="10" fill="#0a0a0f" stroke="#ff0040" stroke-width="1"/>
  </g>
  <path d="M 150 50 L 200 100" stroke="#ff0040" stroke-width="2" stroke-dasharray="5,5"/>
  <path d="M 200 100 L 250 50" stroke="#ff0040" stroke-width="2" stroke-dasharray="5,5"/>
</svg>